<svg width="460" height="101" viewBox="0 0 460 101" fill="none" xmlns="http://www.w3.org/2000/svg">
<g filter="url(#filter0_d)">
<rect x="210" width="240" height="90" fill="#E5E5E5"/>
<rect width="210" height="90" fill="#DF2E3D"/>
</g>
<path d="M24.296 31.616V42.704H46.544V53.72H24.296V71H10.04V20.6H49.568V31.616H24.296ZM85.1546 61.208H63.8426L59.8826 71H45.3386L67.5866 20.6H81.6266L103.947 71H89.1146L85.1546 61.208ZM80.9786 50.696L74.4986 34.568L68.0186 50.696H80.9786ZM124.548 52.712L119.22 58.4V71H105.108V20.6H119.22V41.552L138.732 20.6H154.428L133.836 42.92L155.508 71H138.948L124.548 52.712ZM196.833 59.984V71H156.369V20.6H195.897V31.616H170.481V40.112H192.873V50.768H170.481V59.984H196.833Z" fill="white"/>
<path d="M267.889 20.6V71H256.153L233.905 44.144V71H219.937V20.6H231.673L253.921 47.456V20.6H267.889ZM315.529 59.984V71H275.065V20.6H314.593V31.616H289.177V40.112H311.569V50.768H289.177V59.984H315.529ZM398.913 20.6L382.569 71H367.305L357.657 40.328L347.577 71H332.313L315.969 20.6H330.657L340.809 52.784L351.465 20.6H364.569L374.721 53.072L385.305 20.6H398.913ZM418.853 72.008C414.773 72.008 410.813 71.504 406.973 70.496C403.133 69.488 400.013 68.144 397.613 66.464L402.293 55.952C404.549 57.44 407.165 58.64 410.141 59.552C413.117 60.464 416.045 60.92 418.925 60.92C424.397 60.92 427.133 59.552 427.133 56.816C427.133 55.376 426.341 54.32 424.757 53.648C423.221 52.928 420.725 52.184 417.269 51.416C413.477 50.6 410.309 49.736 407.765 48.824C405.221 47.864 403.037 46.352 401.213 44.288C399.389 42.224 398.477 39.44 398.477 35.936C398.477 32.864 399.317 30.104 400.997 27.656C402.677 25.16 405.173 23.192 408.485 21.752C411.845 20.312 415.949 19.592 420.797 19.592C424.109 19.592 427.373 19.976 430.589 20.744C433.805 21.464 436.637 22.544 439.085 23.984L434.693 34.568C429.893 31.976 425.237 30.68 420.725 30.68C417.893 30.68 415.829 31.112 414.533 31.976C413.237 32.792 412.589 33.872 412.589 35.216C412.589 36.56 413.357 37.568 414.893 38.24C416.429 38.912 418.901 39.608 422.309 40.328C426.149 41.144 429.317 42.032 431.813 42.992C434.357 43.904 436.541 45.392 438.365 47.456C440.237 49.472 441.173 52.232 441.173 55.736C441.173 58.76 440.333 61.496 438.653 63.944C436.973 66.392 434.453 68.36 431.093 69.848C427.733 71.288 423.653 72.008 418.853 72.008Z" fill="black"/>
<defs>
<filter id="filter0_d" x="0" y="0" width="460" height="101" filterUnits="userSpaceOnUse" color-interpolation-filters="sRGB">
<feFlood flood-opacity="0" result="BackgroundImageFix"/>
<feColorMatrix in="SourceAlpha" type="matrix" values="0 0 0 0 0 0 0 0 0 0 0 0 0 0 0 0 0 0 127 0"/>
<feOffset dx="6" dy="7"/>
<feGaussianBlur stdDeviation="2"/>
<feColorMatrix type="matrix" values="0 0 0 0 0 0 0 0 0 0 0 0 0 0 0 0 0 0 0.15 0"/>
<feBlend mode="normal" in2="BackgroundImageFix" result="effect1_dropShadow"/>
<feBlend mode="normal" in="SourceGraphic" in2="effect1_dropShadow" result="shape"/>
</filter>
</defs>
</svg>
